<?xml version="1.0" encoding="UTF-8"?>
<svg xmlns="http://www.w3.org/2000/svg" xmlns:xlink="http://www.w3.org/1999/xlink" width="50pt" height="50pt" viewBox="0 0 50 50" version="1.1">
<g id="surface1">
<path style=" stroke:none;fill-rule:nonzero;fill:#918E9B;fill-opacity:1;" d="M 39.472656 6.578125 L 9.867188 6.578125 C 8.050781 6.578125 6.578125 8.050781 6.578125 9.867188 L 6.578125 39.472656 C 6.578125 41.292969 8.050781 42.761719 9.867188 42.761719 L 26.316406 42.761719 L 26.316406 27.960938 L 21.382813 27.960938 L 21.382813 23.027344 L 26.316406 23.027344 L 26.316406 20.378906 C 26.316406 15.363281 28.757813 13.15625 32.925781 13.15625 C 34.925781 13.15625 35.984375 13.304688 36.480469 13.375 L 36.480469 18.09375 L 33.640625 18.09375 C 31.867188 18.09375 31.25 19.023438 31.25 20.917969 L 31.25 23.027344 L 36.433594 23.027344 L 35.734375 27.960938 L 31.25 27.960938 L 31.25 42.761719 L 39.472656 42.761719 C 41.292969 42.761719 42.761719 41.292969 42.761719 39.472656 L 42.761719 9.867188 C 42.761719 8.050781 41.292969 6.578125 39.472656 6.578125 Z "/>
</g>
</svg>
