<?xml version="1.0" encoding="UTF-8"?>
<svg xmlns="http://www.w3.org/2000/svg" xmlns:xlink="http://www.w3.org/1999/xlink" width="50pt" height="50pt" viewBox="0 0 50 50" version="1.1">
<g id="surface1">
<path style=" stroke:none;fill-rule:nonzero;fill:#918E9B;fill-opacity:1;" d="M 17.648438 46.464844 C 18.355469 46.160156 18.847656 45.460938 18.847656 44.644531 L 18.847656 39.289063 C 18.847656 39.089844 18.863281 38.886719 18.886719 38.679688 C 18.875 38.683594 18.863281 38.6875 18.847656 38.691406 C 18.847656 38.691406 15.871094 38.691406 15.277344 38.691406 C 13.789063 38.691406 12.5 38.09375 11.90625 36.902344 C 11.210938 35.613281 10.914063 33.433594 9.125 32.242188 C 8.828125 32.042969 9.03125 31.746094 9.621094 31.746094 C 10.21875 31.847656 11.507813 32.636719 12.300781 33.730469 C 13.195313 34.824219 14.085938 35.714844 15.675781 35.714844 C 18.140625 35.714844 19.464844 35.589844 20.261719 35.164063 C 21.1875 33.785156 22.46875 32.738281 23.808594 32.738281 L 23.808594 32.714844 C 18.1875 32.53125 14.59375 30.664063 12.921875 27.777344 C 9.285156 27.820313 6.117188 28.179688 4.3125 28.480469 C 4.253906 28.152344 4.203125 27.828125 4.160156 27.5 C 5.945313 27.207031 8.96875 26.859375 12.445313 26.792969 C 12.332031 26.519531 12.234375 26.234375 12.152344 25.949219 C 8.667969 25.773438 5.664063 25.910156 4.03125 26.046875 C 4.011719 25.714844 3.984375 25.386719 3.980469 25.054688 C 5.613281 24.921875 8.542969 24.785156 11.9375 24.945313 C 11.859375 24.449219 11.808594 23.941406 11.808594 23.414063 C 11.808594 21.730469 12.402344 19.941406 13.492188 18.453125 C 12.996094 16.769531 12.304688 13.195313 13.691406 11.90625 C 16.367188 11.90625 18.257813 13.195313 19.148438 13.988281 C 20.832031 13.292969 22.714844 12.898438 24.800781 12.898438 C 26.886719 12.898438 28.769531 13.292969 30.359375 13.988281 C 31.25 13.195313 33.132813 11.90625 35.816406 11.90625 C 37.304688 13.292969 36.507813 16.863281 36.011719 18.453125 C 37.101563 19.941406 37.699219 21.628906 37.597656 23.414063 C 37.597656 23.894531 37.554688 24.355469 37.488281 24.808594 C 40.960938 24.640625 43.964844 24.777344 45.628906 24.910156 C 45.628906 25.246094 45.597656 25.574219 45.578125 25.902344 C 43.921875 25.765625 40.839844 25.625 37.289063 25.8125 C 37.199219 26.144531 37.089844 26.472656 36.960938 26.785156 C 40.480469 26.832031 43.578125 27.171875 45.445313 27.472656 C 45.402344 27.800781 45.351563 28.125 45.292969 28.449219 C 43.394531 28.144531 40.164063 27.789063 36.484375 27.773438 C 34.835938 30.625 31.308594 32.488281 25.792969 32.707031 L 25.792969 32.738281 C 28.375 32.738281 30.753906 36.605469 30.753906 39.289063 L 30.753906 44.644531 C 30.753906 45.460938 31.246094 46.160156 31.957031 46.464844 C 41.042969 43.457031 47.617188 34.886719 47.617188 24.800781 C 47.617188 12.21875 37.382813 1.984375 24.800781 1.984375 C 12.21875 1.984375 1.984375 12.21875 1.984375 24.800781 C 1.984375 34.886719 8.558594 43.457031 17.648438 46.464844 Z "/>
</g>
</svg>
