<?xml version="1.0" encoding="UTF-8"?>
<svg xmlns="http://www.w3.org/2000/svg" xmlns:xlink="http://www.w3.org/1999/xlink" width="50pt" height="50pt" viewBox="0 0 50 50" version="1.1">
<g id="surface1">
<path style=" stroke:none;fill-rule:nonzero;fill:#918E9B;fill-opacity:1;" d="M 16.449219 4.933594 C 10.101563 4.933594 4.933594 10.101563 4.933594 16.449219 L 4.933594 32.894531 C 4.933594 39.242188 10.101563 44.40625 16.449219 44.40625 L 32.894531 44.40625 C 39.242188 44.40625 44.40625 39.242188 44.40625 32.894531 L 44.40625 16.449219 C 44.40625 10.101563 39.242188 4.933594 32.894531 4.933594 Z M 36.183594 11.511719 C 37.089844 11.511719 37.828125 12.253906 37.828125 13.15625 C 37.828125 14.0625 37.089844 14.800781 36.183594 14.800781 C 35.277344 14.800781 34.539063 14.0625 34.539063 13.15625 C 34.539063 12.253906 35.277344 11.511719 36.183594 11.511719 Z M 24.671875 14.800781 C 30.113281 14.800781 34.539063 19.230469 34.539063 24.671875 C 34.539063 30.113281 30.113281 34.539063 24.671875 34.539063 C 19.230469 34.539063 14.800781 30.113281 14.800781 24.671875 C 14.800781 19.230469 19.230469 14.800781 24.671875 14.800781 Z M 24.671875 18.09375 C 21.035156 18.09375 18.09375 21.035156 18.09375 24.671875 C 18.09375 28.308594 21.035156 31.25 24.671875 31.25 C 28.308594 31.25 31.25 28.308594 31.25 24.671875 C 31.25 21.035156 28.308594 18.09375 24.671875 18.09375 Z "/>
</g>
</svg>
