<?xml version="1.0" encoding="UTF-8"?>
<svg xmlns="http://www.w3.org/2000/svg" xmlns:xlink="http://www.w3.org/1999/xlink" width="52pt" height="52pt" viewBox="0 0 52 52" version="1.1">
<g id="surface1">
<path style=" stroke:none;fill-rule:nonzero;fill:#918E9B;fill-opacity:1;" d="M 41.609375 0 L 9.601563 0 C 4.300781 0 0 4.300781 0 9.601563 L 0 41.609375 C 0 46.910156 4.300781 51.210938 9.601563 51.210938 L 41.609375 51.210938 C 46.910156 51.210938 51.210938 46.910156 51.210938 41.609375 L 51.210938 9.601563 C 51.210938 4.300781 46.910156 0 41.609375 0 Z M 15.835938 43.472656 L 7.878906 43.472656 L 7.832031 19.652344 L 15.789063 19.652344 Z M 11.65625 16.535156 L 11.609375 16.535156 C 9.011719 16.535156 7.332031 14.742188 7.332031 12.511719 C 7.332031 10.226563 9.0625 8.496094 11.710938 8.496094 C 14.355469 8.496094 15.980469 10.226563 16.035156 12.511719 C 16.035156 14.742188 14.347656 16.535156 11.65625 16.535156 Z M 43.417969 43.472656 L 35.394531 43.472656 L 35.394531 30.53125 C 35.394531 27.398438 34.5625 25.265625 31.761719 25.265625 C 29.621094 25.265625 28.46875 26.707031 27.914063 28.097656 C 27.707031 28.597656 27.652344 29.285156 27.652344 29.984375 L 27.652344 43.472656 L 19.589844 43.472656 L 19.542969 19.652344 L 27.605469 19.652344 L 27.652344 23.011719 C 28.683594 21.421875 30.398438 19.167969 34.507813 19.167969 C 39.601563 19.167969 43.410156 22.488281 43.410156 29.636719 L 43.410156 43.472656 Z "/>
</g>
</svg>
