<?xml version="1.0" encoding="UTF-8"?>
<svg xmlns="http://www.w3.org/2000/svg" xmlns:xlink="http://www.w3.org/1999/xlink" width="50pt" height="50pt" viewBox="0 0 50 50" version="1.1">
<g id="surface1">
<path style=" stroke:none;fill-rule:nonzero;fill:#918E9B;fill-opacity:1;" d="M 39.472656 6.578125 L 9.867188 6.578125 C 8.050781 6.578125 6.578125 8.050781 6.578125 9.867188 L 6.578125 39.472656 C 6.578125 41.292969 8.050781 42.761719 9.867188 42.761719 L 39.472656 42.761719 C 41.292969 42.761719 42.761719 41.292969 42.761719 39.472656 L 42.761719 9.867188 C 42.761719 8.050781 41.292969 6.578125 39.472656 6.578125 Z M 34.011719 19.71875 C 34.027344 19.929688 34.027344 20.148438 34.027344 20.367188 C 34.027344 26.945313 29.015625 34.539063 19.851563 34.539063 C 17.039063 34.539063 14.417969 33.71875 12.214844 32.304688 C 12.605469 32.347656 13.003906 32.367188 13.402344 32.367188 C 15.734375 32.367188 17.886719 31.570313 19.589844 30.234375 C 17.410156 30.195313 15.574219 28.757813 14.9375 26.777344 C 15.238281 26.835938 15.554688 26.867188 15.875 26.867188 C 16.332031 26.867188 16.769531 26.804688 17.1875 26.6875 C 14.90625 26.230469 13.191406 24.222656 13.191406 21.804688 C 13.191406 21.785156 13.191406 21.765625 13.191406 21.742188 C 13.863281 22.113281 14.628906 22.339844 15.445313 22.363281 C 14.109375 21.472656 13.234375 19.949219 13.234375 18.21875 C 13.234375 17.308594 13.480469 16.453125 13.902344 15.714844 C 16.363281 18.726563 20.03125 20.714844 24.175781 20.917969 C 24.09375 20.558594 24.046875 20.171875 24.046875 19.789063 C 24.046875 17.03125 26.277344 14.800781 29.027344 14.800781 C 30.460938 14.800781 31.757813 15.40625 32.664063 16.375 C 33.800781 16.152344 34.867188 15.742188 35.832031 15.167969 C 35.457031 16.332031 34.667969 17.308594 33.640625 17.925781 C 34.648438 17.804688 35.605469 17.539063 36.5 17.140625 C 35.832031 18.136719 34.988281 19.015625 34.011719 19.71875 Z "/>
</g>
</svg>
